<svg
    xmlns="http://www.w3.org/2000/svg"
    fill="none"
    viewBox="0 0 78 20"
>
    <path
        fill="#1E293B"
        d="M17.777.356h4.293v19.288h-4.293zM24.062 10c0-5.846 3.886-10 9.397-10 5.51 0 9.397 4.154 9.397 10S38.97 20 33.46 20c-5.51 0-9.397-4.154-9.397-10m9.397 5.727c2.842 0 4.873-2.404 4.873-5.786 0-3.383-2.03-5.787-4.873-5.787-2.842 0-4.873 2.404-4.873 5.787s2.03 5.786 4.873 5.786m10.23-1.81 4.988-1.068c.116 1.87 1.421 3.234 3.597 3.234 1.42 0 2.784-.593 2.784-1.899 0-3.68-10.557-2.967-10.557-8.902C44.5 2.196 47.285 0 51.46 0c4.264 0 7.426 2.196 7.774 5.282L54.42 6.469c-.116-1.573-1.392-2.67-3.075-2.67-1.42 0-2.436.8-2.436 1.898 0 3.502 10.79 2.434 10.79 8.606 0 3.353-3.162 5.697-7.657 5.697-4.699 0-8.238-2.582-8.353-6.083m24.536-2.344-2.29 2.789v5.282h-4.293V.356h4.292v8.25l5.801-8.25h5.685l-6.642 8.101L78 19.644h-5.22zm-57.706-.199v4.11c0 2.294 1.818 4.154 4.061 4.154V15.53c0-2.294-1.818-4.155-4.061-4.155m-6.226 2.988v5.282H0V.356h4.293v8.25l5.8-8.25h5.685z"
    />
</svg>